<svg width="16" height="14" viewBox="0 0 16 14" fill="none" xmlns="http://www.w3.org/2000/svg">
<path d="M16 13C16 13.2652 15.8946 13.5196 15.7071 13.7071C15.5196 13.8946 15.2652 14 15 14L1 14C0.734784 14 0.480429 13.8946 0.292892 13.7071C0.105356 13.5196 -6.42368e-08 13.2652 -8.74228e-08 13C-1.10609e-07 12.7348 0.105356 12.4804 0.292892 12.2929C0.480429 12.1054 0.734783 12 1 12L15 12C15.2652 12 15.5196 12.1054 15.7071 12.2929C15.8946 12.4804 16 12.7348 16 13Z" fill="white"/>
<path d="M16 1C16 1.26522 15.8946 1.51957 15.7071 1.70711C15.5196 1.89464 15.2652 2 15 2L1 2C0.734784 2 0.480429 1.89465 0.292892 1.70711C0.105356 1.51957 -6.42368e-08 1.26522 -8.74228e-08 1C-1.10609e-07 0.734785 0.105356 0.48043 0.292892 0.292894C0.480429 0.105357 0.734783 1.33453e-06 1 1.31134e-06L15 8.74228e-08C15.2652 6.42368e-08 15.5196 0.105356 15.7071 0.292892C15.8946 0.480429 16 0.734784 16 1Z" fill="white"/>
<path d="M15 8C15.2652 8 15.5196 7.89464 15.7071 7.70711C15.8946 7.51957 16 7.26522 16 7C16 6.73478 15.8946 6.48043 15.7071 6.29289C15.5196 6.10536 15.2652 6 15 6L7 6C6.73478 6 6.48043 6.10536 6.29289 6.29289C6.10536 6.48043 6 6.73478 6 7C6 7.26522 6.10536 7.51957 6.29289 7.70711C6.48043 7.89464 6.73478 8 7 8L15 8Z" fill="white"/>
</svg>
