<svg width="17" height="17" viewBox="0 0 17 17" fill="none" xmlns="http://www.w3.org/2000/svg">
<path d="M4 0.5C4.13261 0.5 4.25979 0.552678 4.35355 0.646447C4.44732 0.740215 4.5 0.867392 4.5 1V1.5H12.5V1C12.5 0.867392 12.5527 0.740215 12.6464 0.646447C12.7402 0.552678 12.8674 0.5 13 0.5C13.1326 0.5 13.2598 0.552678 13.3536 0.646447C13.4473 0.740215 13.5 0.867392 13.5 1V1.5H14.5C15.0304 1.5 15.5391 1.71071 15.9142 2.08579C16.2893 2.46086 16.5 2.96957 16.5 3.5V14.5C16.5 15.0304 16.2893 15.5391 15.9142 15.9142C15.5391 16.2893 15.0304 16.5 14.5 16.5H2.5C1.96957 16.5 1.46086 16.2893 1.08579 15.9142C0.710714 15.5391 0.5 15.0304 0.5 14.5V3.5C0.5 2.96957 0.710714 2.46086 1.08579 2.08579C1.46086 1.71071 1.96957 1.5 2.5 1.5H3.5V1C3.5 0.867392 3.55268 0.740215 3.64645 0.646447C3.74021 0.552678 3.86739 0.5 4 0.5V0.5ZM2.5 2.5C2.23478 2.5 1.98043 2.60536 1.79289 2.79289C1.60536 2.98043 1.5 3.23478 1.5 3.5V14.5C1.5 14.7652 1.60536 15.0196 1.79289 15.2071C1.98043 15.3946 2.23478 15.5 2.5 15.5H14.5C14.7652 15.5 15.0196 15.3946 15.2071 15.2071C15.3946 15.0196 15.5 14.7652 15.5 14.5V3.5C15.5 3.23478 15.3946 2.98043 15.2071 2.79289C15.0196 2.60536 14.7652 2.5 14.5 2.5H2.5Z" fill="#274E5D" stroke="#353941"/>
<path d="M3 4.5C3 4.36739 3.05268 4.24021 3.14645 4.14645C3.24021 4.05268 3.36739 4 3.5 4H13.5C13.6326 4 13.7598 4.05268 13.8536 4.14645C13.9473 4.24021 14 4.36739 14 4.5V5.5C14 5.63261 13.9473 5.75979 13.8536 5.85355C13.7598 5.94732 13.6326 6 13.5 6H3.5C3.36739 6 3.24021 5.94732 3.14645 5.85355C3.05268 5.75979 3 5.63261 3 5.5V4.5Z" fill="#274E5D" stroke="#353941" stroke-width="0.5"/>
</svg>
