<svg width="18" height="21" viewBox="0 0 18 21" fill="none" xmlns="http://www.w3.org/2000/svg">
<path d="M7.14603 1.24986C7.29544 0.880575 7.55173 0.564325 7.88204 0.341645C8.21235 0.118964 8.60164 0 9 0C9.39836 0 9.78765 0.118964 10.118 0.341645C10.4483 0.564325 10.7046 0.880575 10.854 1.24986C12.3327 1.65653 13.637 2.53739 14.5667 3.75715C15.4963 4.97691 15.9998 6.46811 15.9999 8.00174V12.6987L17.8319 15.4466C17.9323 15.5972 17.99 15.7723 17.9988 15.9531C18.0076 16.1339 17.9671 16.3137 17.8817 16.4734C17.7963 16.633 17.6692 16.7664 17.5139 16.8595C17.3586 16.9525 17.1809 17.0016 16.9999 17.0016H12.4649C12.3445 17.8347 11.928 18.5965 11.2917 19.1475C10.6553 19.6985 9.84174 20.0018 9 20.0018C8.15825 20.0018 7.34469 19.6985 6.70834 19.1475C6.07199 18.5965 5.65546 17.8347 5.53506 17.0016H1.00013C0.819093 17.0016 0.641442 16.9525 0.486133 16.8595C0.330823 16.7664 0.203682 16.633 0.118274 16.4734C0.0328655 16.3137 -0.00760562 16.1339 0.00117783 15.9531C0.00996128 15.7723 0.0676698 15.5972 0.168147 15.4466L2.00012 12.6987V8.00174C2.00012 4.7778 4.18008 2.06184 7.14603 1.24986ZM7.58602 17.0016C7.6893 17.2942 7.8808 17.5476 8.13414 17.7269C8.38747 17.9061 8.69017 18.0024 9.0005 18.0024C9.31083 18.0024 9.61353 17.9061 9.86686 17.7269C10.1202 17.5476 10.3117 17.2942 10.415 17.0016H7.58502H7.58602ZM9 3.00183C7.67394 3.00183 6.40219 3.5286 5.46452 4.46627C4.52686 5.40393 4.00008 6.67568 4.00008 8.00174V13.0017C4.00013 13.1992 3.94167 13.3923 3.83209 13.5567L2.8691 15.0016H15.1299L14.1669 13.5567C14.0577 13.3922 13.9996 13.1991 13.9999 13.0017V8.00174C13.9999 6.67568 13.4731 5.40393 12.5355 4.46627C11.5978 3.5286 10.3261 3.00183 9 3.00183V3.00183Z" fill="#274E5D"/>
</svg>
